<svg width="88" height="90" viewBox="0 0 88 90" fill="none" xmlns="http://www.w3.org/2000/svg">
<path d="M64.0031 49.6465C59.8324 59.2444 28.6334 78.0461 12.8911 80.4249C13.4555 79.4382 13.7643 78.6871 14.3571 77.9852C15.305 76.6451 16.3628 75.3591 17.2006 73.9649C17.8466 72.7475 17.2572 71.7356 15.6807 71.3224C13.7741 70.747 12.9611 71.3407 12.2405 72.1604C9.53185 75.4344 6.8694 78.8213 4.31703 82.2622C3.11361 83.8379 4.53747 85.1693 7.7258 85.652C9.03593 85.8442 10.4277 85.8056 11.7378 85.9977C20.3122 86.9593 28.7126 87.9258 37.113 88.8923C37.855 88.986 38.6432 89.1926 39.119 89.0651C40.0705 88.8102 41.3237 88.4327 41.3769 87.9172C41.494 87.3427 40.6667 86.3946 39.7861 85.9621C38.7955 85.4755 37.4854 85.2833 36.2391 85.0323C32.5928 84.5051 28.9287 84.1498 25.2824 83.6227C24.2563 83.4798 23.2941 83.278 21.8739 83.0318C22.4313 82.6736 22.623 82.4969 22.8609 82.4332C42.8739 75.6517 57.2981 65.3124 68.9421 53.3366C70.6852 51.5746 71.988 49.5964 72.8328 47.5737C73.7946 44.9765 75.6371 42.8119 78.0937 40.8588C82.8331 36.9573 86.0138 32.4707 86.9115 27.1335C87.4508 24.1482 87.138 21.0153 85.7353 17.7983C82.3225 10.5243 74.7596 5.36475 63.3127 2.54068C54.2305 0.336457 45.3935 0.23891 37.0643 1.38394C21.2297 3.53691 9.60981 9.11447 1.57968 17.4485C0.940664 18.0374 0.695753 18.7297 0.340781 19.3678C-0.205896 20.1827 0.117271 20.9734 1.61207 21.6174C3.10687 22.2614 4.18616 21.8887 4.88907 21.2409C5.27248 20.8875 5.60973 20.4212 5.99313 20.0678C12.1062 13.5007 21.2942 9.07589 32.7405 6.3021C39.0814 4.81238 45.9656 4.22153 53.3753 4.7014C58.1933 5.08181 62.9119 5.86484 67.414 7.62493C74.8596 10.56 79.2874 14.7213 80.6229 19.7109C82.5124 26.056 79.8928 31.2696 75.0292 36.3741C74.422 35.5341 74.0172 34.9741 73.7225 34.4682C73.4739 34.0753 73.2892 33.6234 73.1046 33.1716C69.6848 26.5262 61.9124 21.7151 51.3391 19.9521C48.8928 19.563 46.3826 19.2328 44.0748 19.1826C24.3309 18.8736 11.447 24.372 5.03613 34.9459C2.23182 39.7077 3.6135 44.8102 10.2782 49.7091C14.6846 52.957 20.2305 54.6881 26.277 55.4914C31.7554 56.1963 36.9745 56.0514 42.0728 55.3959C48.9286 54.5202 55.1771 52.8046 61.0031 50.7008C61.9084 50.333 62.8599 50.0781 64.0031 49.6465ZM13.7343 31.9056C19.0133 27.8178 26.5754 24.5806 34.6205 23.3863C39.6727 22.6178 45.0657 22.4682 50.7465 23.453C58.9197 24.9398 64.4801 28.2128 67.0156 33.3405C68.0668 35.482 68.2943 37.7605 68.4756 39.9261C68.497 40.8394 67.7586 41.831 66.9456 42.4247C58.4287 47.6306 48.2856 51.225 35.4225 52.0389C31.9893 52.2484 28.1974 52.0109 24.725 51.4789C14.8298 49.8684 8.74026 44.4395 10.3693 38.7393C10.7915 36.3285 12.57 34.2228 13.7343 31.9056Z" fill="black"/>
</svg>
