<svg width="55" height="55" viewBox="0 0 55 55" fill="none" xmlns="http://www.w3.org/2000/svg">
<g clip-path="url(#clip0_112_200)">
<path d="M32.3297 3.60937C30.91 -1.20313 24.09 -1.20313 22.6703 3.60937L22.3266 4.77812C22.1144 5.49861 21.7437 6.16247 21.2417 6.72104C20.7396 7.27961 20.1188 7.71872 19.425 8.00616C18.7311 8.2936 17.9817 8.42208 17.2317 8.38219C16.4817 8.3423 15.7501 8.13505 15.0906 7.77563L14.025 7.19125C9.61469 4.79187 4.79187 9.61469 7.19469 14.0216L7.77563 15.0906C9.30875 17.9094 7.85469 21.4191 4.77812 22.3266L3.60937 22.6703C-1.20313 24.09 -1.20313 30.91 3.60937 32.3297L4.77812 32.6734C5.49861 32.8856 6.16247 33.2563 6.72104 33.7583C7.27961 34.2604 7.71872 34.8812 8.00616 35.575C8.2936 36.2689 8.42208 37.0183 8.38219 37.7683C8.3423 38.5183 8.13505 39.2499 7.77563 39.9094L7.19125 40.975C4.79187 45.3853 9.61469 50.2081 14.0216 47.8053L15.0906 47.2244C15.7501 46.865 16.4817 46.6577 17.2317 46.6178C17.9817 46.5779 18.7311 46.7064 19.425 46.9938C20.1188 47.2813 20.7396 47.7204 21.2417 48.279C21.7437 48.8375 22.1144 49.5014 22.3266 50.2219L22.6703 51.3906C24.09 56.2031 30.91 56.2031 32.3297 51.3906L32.6734 50.2219C32.8856 49.5014 33.2563 48.8375 33.7583 48.279C34.2604 47.7204 34.8812 47.2813 35.575 46.9938C36.2689 46.7064 37.0183 46.5779 37.7683 46.6178C38.5183 46.6577 39.2499 46.865 39.9094 47.2244L40.975 47.8088C45.3853 50.2081 50.2081 45.3853 47.8053 40.9784L47.2244 39.9094C46.865 39.2499 46.6577 38.5183 46.6178 37.7683C46.5779 37.0183 46.7064 36.2689 46.9938 35.575C47.2813 34.8812 47.7204 34.2604 48.279 33.7583C48.8375 33.2563 49.5014 32.8856 50.2219 32.6734L51.3906 32.3297C56.2031 30.91 56.2031 24.09 51.3906 22.6703L50.2219 22.3266C49.5014 22.1144 48.8375 21.7437 48.279 21.2417C47.7204 20.7396 47.2813 20.1188 46.9938 19.425C46.7064 18.7311 46.5779 17.9817 46.6178 17.2317C46.6577 16.4817 46.865 15.7501 47.2244 15.0906L47.8088 14.025C50.2081 9.61469 45.3853 4.79187 40.9784 7.19469L39.9094 7.77563C39.2499 8.13505 38.5183 8.3423 37.7683 8.38219C37.0183 8.42208 36.2689 8.2936 35.575 8.00616C34.8812 7.71872 34.2604 7.27961 33.7583 6.72104C33.2563 6.16247 32.8856 5.49861 32.6734 4.77812L32.3297 3.60937ZM27.5 37.5719C24.8288 37.5719 22.267 36.5107 20.3781 34.6219C18.4893 32.733 17.4281 30.1712 17.4281 27.5C17.4281 24.8288 18.4893 22.267 20.3781 20.3781C22.267 18.4893 24.8288 17.4281 27.5 17.4281C30.1703 17.4281 32.7313 18.4889 34.6195 20.3771C36.5077 22.2653 37.5684 24.8262 37.5684 27.4966C37.5684 30.1669 36.5077 32.7278 34.6195 34.616C32.7313 36.5042 30.1703 37.565 27.5 37.565V37.5719Z" fill="black"/>
</g>
<defs>
<clipPath id="clip0_112_200">
<rect width="55" height="55" fill="white"/>
</clipPath>
</defs>
</svg>
